<svg id="ѓЊѓCѓ_Ѓ__1" data-name="ѓЊѓCѓ„Ѓ[_1" xmlns="http://www.w3.org/2000/svg" viewBox="0 0 69.03 72.35"><defs><style>.cls-1{fill:#f29634;fill-rule:evenodd;}</style></defs><path class="cls-1" d="M69,31.28l-.43.08v.09l.18.17Z"/><path class="cls-1" d="M68.6,33.44c-.31-.41-.21-.63-.6-.69-.18-.69.44-.71.6-1.21h-.08l-.44.34c.11-.48,1.18-1.93.18-2.59.19-.34,0-.12.34-.17-.2-.36-.2-.31-.52-.35a2.13,2.13,0,0,0,.35-1.55h-.69c0-.33.09-.15-.17-.35,0-.2.05-.4.08-.6.24.16.48.16.35.69h.34a1.05,1.05,0,0,1,.09-.95c-.17-.16-.06,0-.17-.26l-.43.17c.14-.17.28-.35.43-.52-.43-.45-.17-1.19-.87-1.47a3.19,3.19,0,0,0,.26-.26l-1.12-.17h-.17v-.08a.94.94,0,0,1,.77-.18l.52-.86-1-.43c-.11.14-.23.28-.34.43-.17-.21,0,0-.09-.26l-.09-.26c.59.12.62-.18,1,0V21.6a3.79,3.79,0,0,0-.39-.79h0s0,0,0,0c-.16-.27-.31-.53-.37-.65h-.26l.35-.17c-.17-.6-.44-.6-.35-1l-.6.09c0-.4.11-.59-.35-.87l.61-.08V18a1.12,1.12,0,0,1-.78-1.55l-.34.08c0-.33-.06-.39.17-.78l-.43-.08c.05-.17.11-.35.17-.52L64.28,15c-.17,0,0,0-.17.17v-.61a2.56,2.56,0,0,1-.78.26c.16-.37.06-.42.09-.86h-.09a2.9,2.9,0,0,1-1.29.6l.17-.08-.09-.26c.33,0,.15,0,.44.09.16-.47.39-.57.34-1l.35.17c0-.08,0-.17.08-.26H62.9l.17-1-.51.43-.18-.35c.23,0,0,.08.26-.08l-.52-.18a1.52,1.52,0,0,0,.26,1.13h-.52v.08c.37.14.22,0,.35.35-.48-.07-.52-.19-.69.26-.4-.22,0-.37-.26-1l.6-.26v-.35l-.6.43a2.27,2.27,0,0,0-.09-1.12l.43.26c.1-.31-.22-.29.26-.43-.08-.09-.17-.17-.26-.26-.27-.08-.23.08-.6.35a2.07,2.07,0,0,1-.17-.87c-.12-.29.09-.41-.18-.26,0-.06-.11-.11-.17-.17.21-.17,0,0,.26-.09.07-.37-.4-.6-.35-1a4.16,4.16,0,0,0-1.21.26c-.22-.46-.44-.74-.86-.78l.17-.09c-.09-.46-.06-.49-.51-.6,0,.08.05.17.08.26-.46-.19-.5-.33-.52-.78-.17.17-.14.15-.17.52-.43-.1-.29-.26-.52.08-.24-.36-.06-.4.18-.69a1.05,1.05,0,0,1-.61-.78,1,1,0,0,1,.52.44c.06-.21.11-.41.17-.61H56L56.16,6h-.09c-.48.27-.4.38-1,.52,0-.71-.34-.75-.77-.78.19-.23.06-.17.43-.26V5.1l-.43-.26a2.76,2.76,0,0,1-1.13.26l.09.34L53.05,5h-.17l-.26.26L53,6a2.58,2.58,0,0,1-.08.26c-.38-.23-.36-.29-.35-1l-.86-.17V5l.52-.09.17-.25c-.32-.17-.3-.3-.69-.44A1.38,1.38,0,0,1,52,3.46l-.51-.18c-.24-.16-.19,0-.52-.08l.6.6-.95-.17c.19.4.36.37.43,1h-.17l-.43.17c-.14-.17-.29-.34-.43-.52-.52,0-.55,0-.69.44-.27-.2-.15-.16-.44-.18.14-.47.26-.37.61-.86V3.46l-.26-.13v0h-.17s0-.08,0-.11A4,4,0,0,0,48.3,3c.21.36.21.8.69.78-.52.63-1.8.38-1.81-.26-.52-.17-.23,0-.18-.52a3.19,3.19,0,0,1-.26.26l-.43-.52a1.37,1.37,0,0,0,.17-.17,2.58,2.58,0,0,1-.08.26c.28,0,.53-.08.6-.6l.26.34c.35-.17.17,0,.17-.34.48.07.61.14.7,0,.28.21.17-.09.25.25.2,0,.11,0,.44-.17a1.6,1.6,0,0,1-.18-.69h-.08l-1.82.17a3.59,3.59,0,0,1-.08.35L47,2a1.21,1.21,0,0,1-1.38.26l-.09.43a2.33,2.33,0,0,0-.17-.26c.16-.2.16-.12.26-.43H45c-.15.16.09.49.17.86h-.26c-.09-.52-.17-1-.26-1.55.29,0,.21,0,.52.08l.26-.08V1.21L44.15,1c-.17.21,0,0-.08.26-.18-.16-.07,0-.18-.26-.49.15-.26.21-.69.26.06.09.12.17.17.26a.89.89,0,0,1-.08.17L43,1.56c.1-.32,0-.23.34-.61H43.2c-.12-.32-.28.13-.52.26-.2-.17-.14-.05-.26-.35-.15.19-.08.23-.17.52.22,0,.1,0,.35-.08v.51l.34-.17H43v.17L42.86,2c-.7,0-.48-.08-1.13-.26L41.3,2V1.9c.16-.3.09-.2,0-.6h.09c.12.11.32,0,.77,0-.08-.21-.17-.41-.25-.61V1l-.61.17c-.1-.43-.06-.13,0-.52-.35.05-.84-.08-1,.26-.6-.51-.54-.74-1.38-.86-.24.49-2.4.28-2.59.17l-.17.26c0-.11.05-.23.08-.34-.34.08-.93,0-1,.26L35,.17C34.33,0,31.45.6,30.16.6l-.09.26.86-.08c-.22.17-.21.15-.52.08-.08.18-.17.35-.25.52V1h-.44L29.9.69,29.64.6c-.17.2-.07,0,0,.26L29.46,1c-.05-.18-.11-.35-.17-.52-.74.48-1,.64-1.81,1.12.05-.27.18-.25-.09-.26.23-.21-.05-.15.26-.17-.15-.29-.26-.29-.52-.43h-.35L27,1c-.09.62-.44.2-.35.52a.83.83,0,0,1-.86,0l-.17-.09c.18-.08.4-.07.69-.17V1L25.92.78a8.24,8.24,0,0,0-2.76.86c-.36.2-.19.2-.18.52l-.17.17L22.64,2c-.23,0,0-.05-.35.26V1.9L22,1.81c-.28.55-1.19.54-1.39.52l.18.69-.43.18-.09-.52a8.1,8.1,0,0,0-3.8,1.9c-.33.13-.05.09,0,.34-.35-.12-.3-.2-.61,0h-.17L16,5.1a28.51,28.51,0,0,1-2.68,1.12c.07.43,0,.27.26.35-.12.34-.17.15-.44.43l-.26.09c.09-.39.08-.3.26-.52-.5-.12-1.32.74-2.07.95V8l.35-.09c.05.26.11.52.17.78-.25.36-.31.28-.35.69l-.51-.17c-.13.27,0,.21-.26.43a3.17,3.17,0,0,0-.18-1.21c.3.15.18.12.35.35l.09-.52h-.18c-.27-.15-.7.44-1,.52.05.17.11.34.17.52-.09-.12-.17-.24-.26-.35a19.79,19.79,0,0,0-4.06,4.41c-.35.56.07,1-.69,1.38.23.41.35.2.77.08l.09.44a5.9,5.9,0,0,0-1-.18l.18.44c-.76-.13-2.83,4.23-3,5.87l-.08-.26c-.65.75-.33,1.66-.78,2.42.21.36,0,.29.34.35l-.43.77c.47,0,.4.46.26.95,0-.5-.11-.37-.34-.43V25c-.56.52-.19,2.94-.09,3.46C.46,28.28.4,28.14.35,28A2.06,2.06,0,0,0,0,29.46c.31.18.39.11.52.52H.43c-.19-.16-.11-.16-.43-.26.34,1.46-.56,6.37,1,6.83v.26c-.5.3-.37.71-.95.78a2.41,2.41,0,0,1,.08.25l.52-.08v.51l-.17-.34L0,38.45a8.13,8.13,0,0,0,1,2,5.93,5.93,0,0,0-.35,2.33c.4,0,.23,0,.52-.09-.07.34.15.45-.34.61a3.79,3.79,0,0,1,.51,2.33c.24.29,0,.11.35.17l-.35.61c1.22.64,1.53,5.23,2.77,5.44-.59.93,3.9,5.91,3.71,7.34.26.4.26.3.61.26l-.17.35h.34v.78c.43.08.72.52,1.3.69-.24,1.2.8,1.5,1.57,2.26,0-.12,0-.05.24-.19l-.17.26.09.09c.27.3.74.77,1.32,1.31l.14.07v.06c2.28,2.06,6.19,5,8,4.17l.09.43.25-.25.7.17c-.28.29-.19.2-.61.08.11.7.23.43.87.35-.09.09-.18.17-.26.26l.6.43.09.17c.11-.14.11-.22.26-.34,0,.27-.07.13.17.34s1.75,0,2.07.52l.18-.34c.94.83,5-.52,6.48.86.44-.24.53,0,.69-.43.71.6,1.82.52,2.76.78,0-.15-.06-.29-.08-.43.13.17.11.11.17.43.93.12,2.09-.13,3.11-.09-.06-.33,0-.24-.17-.6.33.15.37.14.51.43.4-.24.06-.24.44-.26,0-.15,0-.29.08-.43l-.34.08v-.08c.53-.17.59.16,1-.18,0,.12.11.23.17.35.33-.32.31-.29.69-.17h.09c0-.49.24-.39-.26-.61v-.09c.29-.28.25.15.34-.25.28.12.17.08.35.25l.6-.43c0,.15-.11.29-.17.43l.52.18h.35l-.35-.35a.78.78,0,0,1,.78.09c.45-.36.74-.52.78-1l.17.26.34-.09v-.26l-.17-.08v.25c-.14-.17-.12-.11-.17-.43.24,0,.1,0,.34-.17l.18.52a1.37,1.37,0,0,1,.17-.17c.11-.18,0-.12-.17-.44l.26.18c.23-.27.08,0,.08-.35.38.12.18-.06.35.26.67-.32,1.57-.92,1.73-1.55-.18.15-.07,0-.18.25h-.08v-.34a8.87,8.87,0,0,1,2.33-.78c0-.52.11-.37-.17-.6.15-.34.07-.14.43-.26,0,.14.06.28.08.43.31-.34.11-.35.52-.43,0-.15-.11-.29-.17-.43l-.35.25.18-.77c.27.09.46,0,.69.34l.17.09-.34.09-.09.34c.37.12.22,0,.86-.09l.09-.69c1,.31,4.1-2.19,4.15-3.19.19.24,0,.22.26.17l.08.26a.73.73,0,0,1,.52-.43l.17-.26L56,61.34a4.91,4.91,0,0,1,1.55-1c-.15-.26,0-.2-.34-.34a2.58,2.58,0,0,0,.08-.26l.26.26c.42-.11-.1-.12.26-.35s0-.14.43-.17v-.69l.44.17a.91.91,0,0,1,.26-.86v-.26c-.22,0,0,0-.23-.07l0,0V58h-.09a.47.47,0,0,1,.09-.12V57.8l0,0a3.71,3.71,0,0,1,1.61-.71c-.14-.41.09-.5-.26-1a1.88,1.88,0,0,1,1.3-.6l.17-.09c-.1-.52-.26-.47-.52-.78l.26.09c.43-.28.58-.54.43-1a4.67,4.67,0,0,0,1-.09h.17l-.52-.17h-.17l.86-.26c-.2-.31-.37-.29-.51-.69.21-.2,0,0,.08-.35.63,0,1-.6,1.9-.6-.15-.54-.32-.29-.6-.78a1.15,1.15,0,0,0-.61.26c-.06-.15-.11-.29-.17-.43l.26.17v-.52l.17-.17c.15.47.23,0,.35.52H64l.18-.09c-.15-.34-.09-.36-.44-.52v-.26c.42.13.79.21,1-.08.33.26.16,0,.09.43.29-.18.31-.13.43-.52-.39-.28.07-.76-.17-1.3V48.3l.26-.09c-.08.34-.07.22.17.43.25-.3.78-.88.78-1.38a1.37,1.37,0,0,0,.17.17c.38-.61-.48-1.43.69-1.72-.65-1.06.32-1.85-.35-2.86.21-.1.12-.21.26,0l.09-.6.69.17v-1h-.17c-.15-.11-.6,0-.87.08l.26-.26C67,41.08,67,41.1,66.7,41v-.35a3.06,3.06,0,0,0,1.13.26c1.86-2.08.6-5.09,1.12-7.69ZM66.87,22.38l.35.08v.26l-.17.09-.18-.35Zm-.43.43h.26c-.12.33,0,.18-.26.35l.09-.18ZM66.36,21v.25C66.26,21.05,66.14,21.14,66.36,21ZM47.78,1.9c-.23,0-.06.1-.26-.09ZM.26,31.1c.09-.44-.09-.4.17-.77C.44,30.74.42,30.9.26,31.1Zm.26-5.27.35-.34C.72,25.8.85,25.69.52,25.83ZM1,42.08h.17C1.06,42.16,1.19,42.16,1,42.08ZM61.35,55.21c-.16.08,0,.08-.18,0Zm2.41-4,.35.17-.17.17-.18-.08Zm.87-14.52c-.1.17,0,0-.17.09l-.09.17C64.53,36.67,64.32,36.87,64.63,36.72ZM60.14,9.16h.08c.06.06.12.11.17.17a2.58,2.58,0,0,1-.08.26h-.17Zm.34.6-.34.18-.09-.18Zm-.26,4.15c0,.12-.06.23-.08.35H60C60.08,13.87,59.9,14.08,60.22,13.91Zm-.78-3.46L60,11c0,.16-.53-.17-.86-.17ZM58.06,8.38c.49.25.54.56.87.95l-.18.17c.14-.32-.18-.15-.34-.08.13-.55-.08-.6-.35-.95Zm.35,2.07c-.16.18,0,.07-.26.18v-.18Zm-.69-2.59V8L57.54,8Zm-.52,2.77.34.17V11l-.34-.26ZM57,8c-.12.29-.05.18-.26.34Zm-.26.6-.09.43c-.06-.17-.12-.34-.17-.52Zm-.26-1.38-.18.43C56.21,7.46,56.22,7.49,56.51,7.26Zm-.26-.09v.09L56,7.09ZM56,8.12c-.11.26,0,.11-.17.26C55.93,8.12,55.81,8.28,56,8.12ZM55,6.83l.17-.18h.09l-.09.61h.26v.17l-.26.17-.09-.17C54.8,7,55.44,7.25,55,6.83Zm-.52-.7-.35.35C54.32,6.17,54.19,6.27,54.52,6.13Zm-.6,1.21A2.41,2.41,0,0,1,54,7.09c0,.17-.06.34-.08.51-.27-.19-.15-.15-.44-.17l-.08-.26Zm.25,3.55L54,11V10.8Zm-.86-3.72h-.43l-.09-.26ZM52.19,5.79v.34C52,5.89,52.08,6.07,52.19,5.79Zm-.26-.52c0,.37,0,.34-.17.52C51.81,5.62,51.87,5.44,51.93,5.27Zm-.52-1.38-.09.43C51.16,4,51.2,4.18,51.41,3.89Zm.09,1.73c-.12.25,0,.1-.18.26C51.43,5.62,51.32,5.77,51.5,5.62ZM49.85,7.86v.26h-.08C49.82,7.85,49.67,8.07,49.85,7.86Zm-2.33-.52V7.6C47.44,7.36,47.38,7.56,47.52,7.34ZM46,2.76l.17.09v.09L45.88,3ZM44.24,1.12h.17c.09.18.17.35.26.52v.17c-.33-.24-.22-.28-.43-.6Zm.17,1.82c-.06.14-.11.29-.17.43-.06-.17-.12-.35-.17-.52C44.3,3,44.21,2.91,44.41,2.94ZM43.2,2.85h.26L43.2,3Zm.35,1.21-.09.35C43.4,4.15,43.37,4.26,43.55,4.06ZM41.13,1C41,1,41.06,1.11,41,1ZM39.05,3.72a1.09,1.09,0,0,0,.61.08l-.35.35-.17-.09-.09-.26Zm0,.34c0,.12,0,.23-.08.35l-.09-.35Zm-.34,0c-.16.08,0,.09-.17,0Zm-.61,1,.09.17c-.06-.06-.12-.11-.17-.17Zm-2-3.63L36,1c.31.17.45.26.43.52h.17c-.05.14-.11.28-.17.43-.34-.13-.2,0-.26-.26L36,1.9c-.23-.23.08-.13-.26-.26l-.09-.34C36,1.25,35.85,1.3,36.12,1.47Zm.43,4.58-.09.17h-.08l-.09-.17L36.46,6Zm-.78-3.63c0,.27-.1.06.09.26v.08c-.32-.17-.15.05-.26-.34ZM35.25,5.7c.13-.11,0,0,.18,0l-.18.18-.17-.18Zm-.08.18.26.25-.18.18c-.17-.18,0-.1-.34-.18Zm-.26-.44.17.09C35,5.49,35,5.6,34.91,5.44Zm.26-3.63-.09.26h-.35C34.91,1.7,34.8,1.92,35.17,1.81Zm-.26,3.37v.09l-.26.09-.18-.18C34.9,5.13,34.6,5.09,34.91,5.18ZM34.65.78v.43h-.09C34.38,1,34.47,1,34.65.78Zm-1.47,4,.09.26c-.16.17-.12-.08-.26.26-.14-.17-.12-.12-.18-.43Zm-.86-3.54c-.1,0-.07.07-.18-.09ZM32.23,2.5c-.16.09,0,.09-.17,0Zm-.78-1.12c-.2.18-.17-.09-.26-.26C31.28,1.21,31.36,1.3,31.45,1.38ZM31.11.86c-.07.32,0,.26-.18.44C31,1,31,1,31.11.86Zm-.26,1.82c-.16.08,0,.08-.18,0ZM30,1.3v.08l-.52-.08C29.76,1.12,29.59,1.21,30,1.3ZM29.29.86l-.09.44H29C29.13.93,29.06,1.05,29.29.86ZM29,1.47l-.17.26C29,1.47,28.86,1.62,29,1.47Zm-1,.78.18-.09C28.05,2.32,28.08,2.21,28,2.25Zm.18,2v.18l-.26-.09A2.58,2.58,0,0,0,28,4.06ZM28,1.47v.34C27.83,1.57,27.88,1.75,28,1.47Zm-.77,1.64.26.09c-.18.17-.09.12-.44.17Zm-.52,3H27c-.16.18,0,.07-.26.18Zm.26.26v.26H26.7ZM26.18,2l.09.08v.26L26,2.25V2.16Zm-.09-.35c-.05.17-.11.35-.17.52l-.34.26-.18-.17Zm-1.55-.26c.23,0,0,0,.26-.08,0,.34.06.69.08,1l-.34.17C24.89,1.85,24.62,2,24.54,1.38ZM23.33,6.65v.26l-.26-.08ZM22.64,5V5.1c-.26-.11-.11,0-.26-.18Zm-.35-2.68v.26C22.19,2.38,22.08,2.48,22.29,2.33ZM22,4.06l.34.26H22a.71.71,0,0,0,.26.43L22,4.84l-.52-.43-.17-.18C21.63,4.42,21.74,4.5,22,4.06Zm-.26.78L22,5V5.1Zm.08.69v.26C21.63,5.57,21.59,5.72,21.77,5.53Zm.52-.61v.44l-.17.17-.35-.09C22,5.27,22.12,5.1,22.29,4.92Zm-1.21-.08V4.75h.09l.17.09-.08.08V5.1Zm.18.78v.26l-.35-.18Zm-.18-2.77v.52l.43-.17c-.19.2-.13.19-.51.26h-.09V3.2l-.09-.26C21.1,2.93,20.88,3,21.08,2.85Zm-.17.87.26.51c-.15.2-.05,0-.35.18h-.08V4.32C20.9,4,21,4.05,20.65,4Zm-1.21.43.35-.09v.09l-.35.08ZM19.61,3v.35l-.17-.17Zm0,1.39v.26C19.51,4.46,19.4,4.55,19.61,4.41Zm-.17-1c-.16.15-.21,0-.52.08C19.15,3.37,19.14,3.39,19.44,3.46Zm-.26,2.16.18.08C19.26,5.66,19.29,5.78,19.18,5.62Zm.18,2.76c-.16.08,0,.09-.18,0ZM18.06,4c.27-.16.47,0,.78.26a.9.9,0,0,0-.09-.51l.43.25c-.11.18-.23.35-.34.52-.19-.17-.17-.11-.26-.43-.18.25-.12.17-.09.52-.46-.15-.12-.34-.69-.35C17.93,3.89,17.79,4,18.06,4Zm.17,1-.17.26L17.8,5.1H18V4.92a3.88,3.88,0,0,1,.87.26c-.12.33,0,.18-.26.35C18.57,5.4,18.53,5.24,18.23,5Zm.26.52c-.11.26,0,.1-.17.26s-.08,0-.43.09c.05-.12.11-.23.17-.35l.26.26ZM18,4.67l.18-.09C18,4.74,18.05,4.63,18,4.67Zm-.17.25h-.26l.26-.25Zm-.26-.69c-.15.08,0,.09-.17,0Zm-.26,1-.17.26C17.22,5.27,17.11,5.43,17.28,5.27Zm-1-.09v.09c-.26-.11-.1,0-.26-.17Zm-.26.52c-.09,0-.06.08-.17-.08ZM15.9,8.29c.3.14,0,.09.34,0-.11.26,0,.11-.17.26l-.17.18Zm-.43.14v0h0c0-.05,0,0,.23,0-.2.14,0,.07-.23,0l0,0v.12h-.09Zm-2-2C14.21,6,14.51,6,15,5.7c-.1,1-.95.55-1,1.21C13.8,6.73,13.77,6.64,13.48,6.39Zm1.3,4.32-.44.18C14.59,10.65,14.48,10.74,14.78,10.71ZM12.62,8.9c-.12.16-.1,0-.18.09ZM11,11c-.1.3-.05.2-.25.18C10.93,11.08,10.76,11.18,11,11Zm-.6-1.47c-.11.26,0,.11-.17.26Zm-.69,0a.89.89,0,0,0,.08-.17l.26.09-.34.43ZM7.6,14l-.08.17c.08.34.06.22-.17.43H7.26A.66.66,0,0,1,7.6,14ZM5.88,15.72l.17-.08.09.26-.09.26H5.88Zm-1.21.35c-.12.26,0,.1-.18.26ZM3.8,17.28c0,.06,0,.12-.08.17a3.19,3.19,0,0,1-.26-.26ZM2,45.27l-.26.09v-.52h.09c.11.22,0,.16.17.35ZM10.89,63v-.18l.34.09Zm1.9,1.38V64.2l.17.08Zm10,6.22c.11-.26,0-.1.17-.26C22.93,70.42,22.87,70.5,22.81,70.59Zm.87.17-.18-.09.18-.08Zm-.26-.34.26-.18C23.52,70.42,23.68,70.31,23.42,70.42Zm2.67-1.3L25.92,69l.17-.08Zm.61-.52-.09-.17h.26Zm1.64.52c-.14-.4,0-.35-.17-.43.35-.26.36,0,.78.34C28.85,69.12,28.58,69,28.34,69.12Zm4.49-.26c0-.06-.11-.11-.17-.17l.17.08ZM34,68.51c-.17-.16-.09,0-.17-.34l.17.09Zm.78-.25h-.09c0-.12,0-.23-.08-.35l.26.09Zm3,3.88-.17-.08.17-.09Zm-.17-2.33c.11-.26,0-.1.17-.26C37.73,69.81,37.85,69.66,37.67,69.81Zm.43,1.82h-.26l.18-.18.08.09Zm1.47-3.12.18-.25C39.63,68.51,39.75,68.36,39.57,68.51Zm.52-.34-.17.09V68l.17.08Zm1-1.21v-.17l.17.08ZM42,69.29v.18h-.34c0-.22.31-.37.6-.7C42.18,69.16,42.2,69.09,42,69.29Zm.17-1.12a3.59,3.59,0,0,1-.17.34h.43l-.51.26-.09-.43ZM42,67.82l.17.09v.17Zm-.34-.69.17-.26C41.71,67.13,41.82,67,41.65,67.13Zm.86,2.59c-.16-.24-.23-.19,0-.43Zm.17-.69.61.09-.09.26-.43.09Zm-.17-.77v-.09l.35.09-.09.08Zm.86,1.55c-.22-.1-.13.09-.26-.26l.26.17Zm.52-.26-.52-.17.18-.17.34-.09.09.26Zm-.43-3.8.17.09C43.54,65.8,43.57,65.91,43.46,65.75Zm1.12,1.3.18-.09v.17Zm.52,1-.34-.18c0-.36,0-.34.17-.51,0,.24,0,.2.17.43Zm.35-.26a.88.88,0,0,1-.43-.35l.43.18Zm.08-.26c-.18-.24-.05,0-.08-.35l.17.18ZM48.82,63h-.09l.35-.35C49,62.93,49,62.82,48.82,63Zm2.76,1.64a5,5,0,0,1-.69-.35l-.09-.17V64a2.31,2.31,0,0,0,1,.09Zm2-1.47c-.14-.43-.14-.59-.52-.61.18-.31.21-.26.69-.26.12-.26.14-.21.09-.51l.43.08c-.15.36,0,.12-.34.26.08.34,0,.26.25.43C53.83,62.77,53.9,62.79,53.57,63.16Zm1-.43-.26.08v-.26l.26.09Zm.69-5.19c-.06-.08-.11-.17-.17-.26l.17.09Zm2.94,1.82c-.26-.11-.11,0-.26-.18l.26.09Zm3.45-5c0-.15-.05-.29-.08-.44a1.33,1.33,0,0,1-1,.26l-.09-.26,1-.17.08.17Zm1.13-1.21-.09.08c-.06,0-.11-.11-.17-.17Zm.08-2.08c-.25-.11-.1,0-.25-.17l.25.09Zm.78-11.75c.28.17,0,.09.35,0-.69,2.46-.66,5.46-1.73,8a18.51,18.51,0,0,1-4.84,6.3c-.8.78-.71,1.88-1.38,2.51-2.07,1.94-5.6,5.62-8.47,6.31l.17.34a3.62,3.62,0,0,0-2.16,1.3c-.58-.29-2.38,1.78-3.19,1.9.15.33.09.11,0,.43l.34-.17c0,.06-.11.11-.17.17-.34.35-.42-.24-.69.17-.18-.16-.09,0-.17-.34-.86.37-3.16.1-3.46.34s-.08,0,0,.35c-.3,0-.2,0-.52.09.17-.24-.08-.1.17-.26-.46-.64-1-.51-1.55-.52l-.09-.09.43-.08a1.7,1.7,0,0,0-.43-.78,3.72,3.72,0,0,0-1.55,1.47v-.26l-.35.17a2.58,2.58,0,0,0-.08.26c.45,0,.53-.07.86.09h.17c-.17.38-.31.28-.6.43,0-.16.1-.19.26-.43-.32.08-.18,0-.35.17s-.06.38,0,.78h-.17c-.06-.12-.12-.23-.17-.35-.29.26-.23,0-.18.35-.31-.17-.14,0-.26-.35-.29.33-.22.58,0,1h-.17c-.2.12-1.15,0-1.29-.26l-.35.26c-.06-.35,0-.1-.17-.43a2.1,2.1,0,0,0-1.39.6c-.16-.52-3.85-.69-4.32-1a3.19,3.19,0,0,1-.26.26.84.84,0,0,1-.25-.6c-1.82.16-1.33-.07-2.77-.87H22a21.48,21.48,0,0,1-3.46-1.38,14,14,0,0,1-4-3.11,10.17,10.17,0,0,1-1.39-.78c-.3-.36-.15-.79-.51-1.12-1.25-1.11-3.46-2.57-3.46-4.32L9,56.07c-1.13-1.16-3.33-7.14-4.32-7.51.1-.35,0-.18.26-.26-.33-1.55-1.29-5.87-2-6.91.63-.73-.65-6.78-.35-8.64.1-.62-.35-2,0-2.86l.78-4.83c.06-.6,0-1.76.09-2,0,.3.25-.25.26-.26.58-.85,1-3.25,1.46-3.63.22-.17.46,0,.61-.26A9.11,9.11,0,0,1,7.6,16.33c-.11-.39,0-.07-.25-.35l.08-.17.35.35c.34-.49.61-.5.52-1L8.9,15c0-.3.11-.13-.09-.35.37-.45.62,0,.87-.17a22.68,22.68,0,0,0,2.94-2.33c0,.21,1.18-.48,1.29-.61l-.34-.6.26-.09c.18.25.12.21.08.61a6.07,6.07,0,0,1,2.77-1.3.77.77,0,0,0,.08-.69c.51.08.49.24.78-.09.15.13.15-.08.09-.17.16-.32.74-.16.69-.69.27-.07.78.51,1.21.26C22.46,7,26.1,7.53,28.08,6.48c.15.14.29.29.43.43.47-.18.5-.24.52-.6l.17.17c0,.12,0,0-.08.09a2,2,0,0,1,.08.26,11.28,11.28,0,0,1,4-.18,1.52,1.52,0,0,0-.35-.26c.28-.2.35-.19.52-.51h.09c.27.24.2.09.26.6h.08L34,6a3.2,3.2,0,0,1,1.29.69c.15-.06.62-.09.69-.52l.35.52c.78-.18,1.11.14,1.81-.34h.09l-.26.43c.6.24,2.37.45,3-.09,1,.65,2.41.35,2.85.87.13-.27.08-.23.08-.52.57.24.74.63,1.56.26,1,1.14,2.93.77,4.06,1.73,0-.15.06-.29.08-.44,1.52.61,5.25,3.42,6,3.29l-.17.26a36.4,36.4,0,0,0,3.8,3.45c.07.78.79.84,1.21,1.56.74,1.26.87,2.64,1.56,3.71l.69,3c1.27,2.19.82,6.81,1.64,8.81-.46,1.25-.26,4.06-.35,6l-.51-.35h-.09A1,1,0,0,0,63.59,39.31Zm.61,10.37h-.09c.06-.09.12-.17.17-.26l.09.09C64.31,49.57,64.25,49.62,64.2,49.68Zm.69-.09c-.23-.21-.09-.19-.52-.25l.09-.18.51.09C65,49.36,64.92,49.48,64.89,49.59ZM65,46.66l.18-.7c.08.12.17.24.26.35Zm.09-25.84v-.43l.17-.17.35.26A5.86,5.86,0,0,1,65.06,20.82Zm2,20.74h.34v.34l-.26-.08a.89.89,0,0,0-.08-.17Zm.69-5.19a1.6,1.6,0,0,0,.26.44V37l-.43-.09C67.62,36.72,67.68,36.55,67.74,36.37Zm-.52-2.24h.26l-.26.17ZM66.7,32.4h.43l-.43.43Zm.35,1.12-.18.35v-.43Zm-1.3-13,.26-.09c0,.43-.05.35.09.52l-.09.34h-.09l-.25-.08C65.69,20.94,65.72,20.71,65.75,20.48Zm.09,24.36-.17.09v-.61c.32.12,0,.07.34,0C66,44.5,65.9,44.67,65.84,44.84Zm.69.95c-.09-.24-.14,0,0-.26Zm0-.86-.17-.18.17-.17Zm1.55-5c-.23.34-.09.12-.43.08l-.08.09.34.26c-.27.08-.37.09-.86.26L67,40.26l-.26.18c.22-.73-.25-1.29-.78-1.13a.3.3,0,0,0-.08-.08l.17-.35.26-.17c.09.08.17.17.26.26s.11.06.17-.18c.15.18.14.17.17.52a1,1,0,0,1,.7.09c0-.4-.17-.23.17-.43v-.26l-.26-.09c-.26.16-.21,0-.35.35-.56-.47-.42-.59-1.38-.44.21-.5.71.17.87-.69.37.23.2.09.08.43.37.25.12,0,.43.35v-.35l.18-.34c.35.13.31-.14.43.34.14-.17.12-.11.17-.43a6.32,6.32,0,0,0,.61.18c-.35.5-.21,1.38-.78,1.47C67.89,39.76,67.89,39.89,68.08,39.92Zm.52-6.14-.17-.17.17.09Z"/><path class="cls-1" d="M68.52,32.75c.23-.23.25-.29.26-.78a1.53,1.53,0,0,1-.52.08c.21.5.23.2.17.7Z"/><path class="cls-1" d="M67.39,23.24l.18-.26-.18-.08c0,.11,0,.23-.08.34Z"/><path class="cls-1" d="M67.48,21.86c-.06.09-.12.17-.17.26C67.48,22,67.37,22.12,67.48,21.86Z"/><path class="cls-1" d="M67.05,39.74c.06.09.11.18.17.26.06-.14.12-.28.17-.43l-.17-.08C67.07,39.76,67.32,39.67,67.05,39.74Z"/><path class="cls-1" d="M67.05,44.75V45l.34-.34C67.06,44.63,67.38,44.63,67.05,44.75Z"/><path class="cls-1" d="M67.13,20.39H67c.06.06.12.11.17.17Z"/><path class="cls-1" d="M67.05,20.74l-.18-.09-.06.13,0,0Z"/><path class="cls-1" d="M66.7,20.05,66.53,20v.17Z"/><path class="cls-1" d="M65.49,49.34v-.18C65.41,49.32,65.41,49.18,65.49,49.34Z"/><path class="cls-1" d="M64.37,50.46l-.17-.09C64.31,50.53,64.29,50.42,64.37,50.46Z"/><path class="cls-1" d="M64.11,50a1.37,1.37,0,0,1,.17.17V50Z"/><path class="cls-1" d="M63.94,33.78v-.26h-.18l.09.26Z"/><path class="cls-1" d="M63.85,12.53h-.26C63.81,12.6,63.73,12.76,63.85,12.53Z"/><path class="cls-1" d="M63.42,12.35h-.17l.17.18Z"/><path class="cls-1" d="M63.42,52.27V52.1h-.17Z"/><path class="cls-1" d="M63.07,13h.18v-.35C63,12.44,63.1,12.69,63.07,13Z"/><path class="cls-1" d="M63.25,13.57h-.18l.18.17Z"/><path class="cls-1" d="M62,11h-.18l.18.18Z"/><path class="cls-1" d="M61.69,55v-.18l-.17-.08C61.63,55,61.51,54.88,61.69,55Z"/><path class="cls-1" d="M61,11.15l.26-.09H61Z"/><path class="cls-1" d="M60.83,10.28v.26c.05-.09.11-.17.17-.26Z"/><path class="cls-1" d="M60,8.73V8.47h-.43v.08l.17.18Z"/><path class="cls-1" d="M58.93,8.73l.25-.09h-.25Z"/><path class="cls-1" d="M58.67,8.29,59,8.21,59.1,8C58.81,8.07,58.83,8.06,58.67,8.29Z"/><path class="cls-1" d="M58.93,7.52a1.82,1.82,0,0,1-.78-.35c-.06.09-.12.17-.17.26h.17C58.33,7.63,58.74,7.77,58.93,7.52Z"/><path class="cls-1" d="M57.8,7.34h.09V7.09c-.27-.16-.13,0-.17.25Z"/><path class="cls-1" d="M57,7.09l.17.25c.06-.14.11-.28.17-.43L57,7Z"/><path class="cls-1" d="M55.82,5.7l-.35-.17v.35h.43A1.42,1.42,0,0,1,55.82,5.7Z"/><path class="cls-1" d="M55.47,6.13H55.3l.17.18Z"/><path class="cls-1" d="M55.12,5.18c0,.15-.11.29-.17.44H55C55.07,5.47,55.1,5.33,55.12,5.18Z"/><path class="cls-1" d="M53.4,4.75V4.41L53,4.32l-.25.52C53.19,4.68,53,4.68,53.4,4.75Z"/><path class="cls-1" d="M52.88,4.41V4.15c-.38.18-.29-.06-.43.08l-.26-.08v.26l.17.08Z"/><path class="cls-1" d="M52.53,3.54h-.34v.52h.08C52.36,3.89,52.45,3.72,52.53,3.54Z"/><path class="cls-1" d="M50.8,2.68l-.25.17L51.67,3c.06-.11.11-.23.17-.34l-.52-.26.18.43Z"/><path class="cls-1" d="M51.15,2.68V2.42l-.43-.09C50.87,2.58,50.88,2.55,51.15,2.68Z"/><path class="cls-1" d="M50.8,4.58V4.41l-.25-.18C50.66,4.56,50.54,4.41,50.8,4.58Z"/><path class="cls-1" d="M50.63,2.33l-.34-.08C50.46,2.56,50.35,2.49,50.63,2.33Z"/><path class="cls-1" d="M50.46,3.11V2.76l-.17-.08L50.11,3C50.45,2.9,50.15,2.94,50.46,3.11Z"/><path class="cls-1" d="M50.46,3.37l-.87-.09v.09C50,3.71,50.21,3.72,50.46,3.37Z"/><path class="cls-1" d="M50.29,4.41a2.33,2.33,0,0,1,.17-.26h-.17Z"/><path class="cls-1" d="M50,3.72l-.09.34H50Z"/><path class="cls-1" d="M49.77,2.68h-.18l.18.17Z"/><path class="cls-1" d="M49.25,3c-.15.15-.11.07-.15.24l.15.07Z"/><path class="cls-1" d="M48.9,1.81h-.17L48.9,2Z"/><path class="cls-1" d="M48.9,2.94l-.17-.09C48.85,3,48.82,2.9,48.9,2.94Z"/><path class="cls-1" d="M47.61,2.94c.26.27.26.35.52,0Z"/><path class="cls-1" d="M47.35,3.72c.38,0,.5-.05.69-.26l-.61.08A1.42,1.42,0,0,1,47.35,3.72Z"/><path class="cls-1" d="M47.78,68.69v-.18h-.17Z"/><path class="cls-1" d="M45.62,1.56l.69.6.09-.43c-.24,0,0,0-.26.08V1.47c.34.11.64.35,1,0l-1.38-.35h-.09c.1.35,0,.18.35.35C45.79,1.78,46,1.57,45.62,1.56Z"/><path class="cls-1" d="M46.48,69h.09v-.26H46.4A2,2,0,0,1,46.48,69Z"/><path class="cls-1" d="M42,1.64V1.47h-.26C41.89,1.64,41.73,1.53,42,1.64Z"/><path class="cls-1" d="M41.47,71.28c.18-.16.07,0,.18-.26l-.18.17Z"/><path class="cls-1" d="M40.52,71.63c.26-.12.11,0,.26-.18h-.26Z"/><path class="cls-1" d="M40.35,71.8l.17-.17-.26.08Z"/><path class="cls-1" d="M38,66.61v-.17h-.18Z"/><path class="cls-1" d="M33.18,67.91c-.18.17-.12.09-.17.43.31-.08.17,0,.34-.17C33.09,68,33.23,68.17,33.18,67.91Z"/><path class="cls-1" d="M32.75.17,32.49.09,32.4.26C32.76.22,32.54.36,32.75.17Z"/><path class="cls-1" d="M28.17.78c-.27,0-.06-.1-.26.08h-.26C27.92,1,28,1,28.17.78Z"/><path class="cls-1" d="M28.08,6.91V6.65l-.17.09Z"/><path class="cls-1" d="M18.49,9.07h.09l.17-.17-.09-.17C18.61,8.84,18.55,9,18.49,9.07Z"/><path class="cls-1" d="M13,65c.11.26,0,.11.17.26v-.11A.86.86,0,0,0,13,65Z"/><path class="cls-1" d="M11.49,63.59h.09a.46.46,0,0,0-.07-.07A.25.25,0,0,1,11.49,63.59Z"/><path class="cls-1" d="M11.23,8.47v.26h.09c.06-.09.11-.18.17-.26Z"/><path class="cls-1" d="M4.58,46.57l.17-.09-.17-.08Z"/><path class="cls-1" d="M4.49,15.12H4.32l.17.17Z"/><path class="cls-1" d="M.69,40H.52l.17.18Z"/></svg>